STARTFONT 2.1
COMMENT
COMMENT Converted from OpenType font "VCR_OSD_MONO_1.001.ttf" by "otf2bdf 3.0".
COMMENT
FONT -FreeType-VCR OSD Mono-Medium-R-Normal--25-180-100-100-P-108-ISO10646-1
SIZE 18 100 100
FONTBOUNDINGBOX 15 21 0 0
STARTPROPERTIES 19
FOUNDRY "FreeType"
FAMILY_NAME "VCR OSD Mono"
WEIGHT_NAME "Medium"
SLANT "R"
SETWIDTH_NAME "Normal"
ADD_STYLE_NAME ""
PIXEL_SIZE 25
POINT_SIZE 180
RESOLUTION_X 100
RESOLUTION_Y 100
SPACING "P"
AVERAGE_WIDTH 108
CHARSET_REGISTRY "ISO10646"
CHARSET_ENCODING "1"
FONT_ASCENT 21
FONT_DESCENT 0
COPYRIGHT "-FreeType-VCR OSD Mono-Medium-R-Normal--25-180-100-100-P-108-ISO10646-1"
_OTF_FONTFILE "VCR_OSD_MONO_1.001.ttf"
_OTF_PSNAME "VCROSDMono"
ENDPROPERTIES
CHARS 207
STARTCHAR 0000
ENCODING 0
SWIDTH 0 0
DWIDTH 0 0
BBX 0 0 0 0
BITMAP
ENDCHAR
STARTCHAR 001D
ENCODING 29
SWIDTH 0 0
DWIDTH 0 0
BBX 0 0 0 0
BITMAP
ENDCHAR
STARTCHAR 0020
ENCODING 32
SWIDTH 600 0
DWIDTH 15 0
BBX 0 0 0 0
BITMAP
ENDCHAR
STARTCHAR 0021
ENCODING 33
SWIDTH 600 0
DWIDTH 15 0
BBX 2 17 5 1
BITMAP
C0
C0
C0
C0
C0
C0
C0
C0
C0
C0
C0
C0
00
00
00
C0
C0
ENDCHAR
STARTCHAR 0022
ENCODING 34
SWIDTH 600 0
DWIDTH 15 0
BBX 10 5 2 13
BITMAP
F1C0
F1C0
F1C0
F1C0
2080
ENDCHAR
STARTCHAR 0023
ENCODING 35
SWIDTH 600 0
DWIDTH 15 0
BBX 12 16 1 2
BITMAP
00C0
00C0
18F0
18F0
9FC0
FFC0
F8C0
18C0
18C0
18F0
1FF0
FFC0
F8C0
18C0
1800
1800
ENDCHAR
STARTCHAR 0024
ENCODING 36
SWIDTH 600 0
DWIDTH 15 0
BBX 12 17 1 1
BITMAP
0700
1FC0
7FE0
FF70
F770
E730
F700
7FC0
1FE0
0770
0770
E730
F770
F770
7FE0
1FC0
0700
ENDCHAR
STARTCHAR 0025
ENCODING 37
SWIDTH 600 0
DWIDTH 15 0
BBX 12 17 1 1
BITMAP
7830
FC30
EC30
EC30
EC70
FCE0
7BC0
0780
0F80
0F00
1CE0
7BF0
F3B0
E3B0
E3F0
E3F0
E0E0
ENDCHAR
STARTCHAR 0026
ENCODING 38
SWIDTH 600 0
DWIDTH 15 0
BBX 12 19 1 1
BITMAP
0F00
1F80
70C0
70C0
70C0
70C0
70C0
1B80
1F80
7F80
7F00
FF00
E7B0
E3F0
E0E0
E0E0
F0E0
7FF0
1FB0
ENDCHAR
STARTCHAR 0027
ENCODING 39
SWIDTH 600 0
DWIDTH 15 0
BBX 4 5 5 13
BITMAP
F0
F0
F0
F0
40
ENDCHAR
STARTCHAR 0028
ENCODING 40
SWIDTH 600 0
DWIDTH 15 0
BBX 6 20 4 1
BITMAP
1C
3C
38
60
C0
C0
C0
C0
C0
C0
C0
C0
C0
C0
C0
C0
60
60
38
1C
ENDCHAR
STARTCHAR 0029
ENCODING 41
SWIDTH 600 0
DWIDTH 15 0
BBX 6 20 5 1
BITMAP
C0
F0
70
38
0C
0C
0C
0C
0C
0C
0C
0C
0C
0C
0C
0C
38
38
70
C0
ENDCHAR
STARTCHAR 002A
ENCODING 42
SWIDTH 600 0
DWIDTH 15 0
BBX 10 11 2 9
BITMAP
0E00
0E00
CE40
EEC0
3F80
1F00
1F00
3F80
EEC0
CE40
0E00
ENDCHAR
STARTCHAR 002B
ENCODING 43
SWIDTH 600 0
DWIDTH 15 0
BBX 12 12 1 4
BITMAP
0700
0700
0700
0700
0700
FFF0
FFF0
0700
0700
0700
0700
0700
ENDCHAR
STARTCHAR 002C
ENCODING 44
SWIDTH 600 0
DWIDTH 15 0
BBX 5 5 4 1
BITMAP
38
38
78
60
C0
ENDCHAR
STARTCHAR 002D
ENCODING 45
SWIDTH 600 0
DWIDTH 15 0
BBX 10 2 2 9
BITMAP
FFC0
FFC0
ENDCHAR
STARTCHAR 002E
ENCODING 46
SWIDTH 600 0
DWIDTH 15 0
BBX 2 2 5 1
BITMAP
C0
C0
ENDCHAR
STARTCHAR 002F
ENCODING 47
SWIDTH 600 0
DWIDTH 15 0
BBX 12 17 1 1
BITMAP
0030
0030
0030
0030
0070
00E0
03C0
0780
0F80
0F00
1C00
7800
F000
E000
E000
E000
E000
ENDCHAR
STARTCHAR 0030
ENCODING 48
SWIDTH 600 0
DWIDTH 15 0
BBX 12 17 1 1
BITMAP
1FC0
7FE0
F070
F070
E030
E0F0
E3F0
E3B0
E730
EC30
FC30
F830
E030
F070
F070
7FE0
1FC0
ENDCHAR
STARTCHAR 0031
ENCODING 49
SWIDTH 600 0
DWIDTH 15 0
BBX 7 17 4 1
BITMAP
38
78
F8
F8
F8
38
38
38
38
38
38
38
38
38
38
FE
FE
ENDCHAR
STARTCHAR 0032
ENCODING 50
SWIDTH 600 0
DWIDTH 15 0
BBX 12 17 1 1
BITMAP
7FE0
7FE0
F070
F070
0030
0030
0070
1FE0
7FC0
F000
F000
E000
E000
E000
E000
FFF0
FFF0
ENDCHAR
STARTCHAR 0033
ENCODING 51
SWIDTH 600 0
DWIDTH 15 0
BBX 12 17 1 1
BITMAP
7FE0
7FE0
F070
F070
0030
0030
0070
07E0
07E0
0070
0030
0030
E030
F070
7070
7FE0
1FC0
ENDCHAR
STARTCHAR 0034
ENCODING 52
SWIDTH 600 0
DWIDTH 15 0
BBX 12 17 1 1
BITMAP
00C0
03C0
07C0
0FC0
1FC0
1CC0
78C0
F8C0
F0C0
E0C0
FFF0
FFF0
00C0
00C0
00C0
00C0
00C0
ENDCHAR
STARTCHAR 0035
ENCODING 53
SWIDTH 600 0
DWIDTH 15 0
BBX 12 17 1 1
BITMAP
FFF0
FFF0
E000
E000
E000
FFC0
FFE0
0070
0030
0030
0030
0030
E030
F070
F070
7FE0
1FC0
ENDCHAR
STARTCHAR 0036
ENCODING 54
SWIDTH 600 0
DWIDTH 15 0
BBX 12 17 1 1
BITMAP
7FE0
7FE0
F070
F070
E000
E000
E000
FFC0
FFE0
E070
E030
E030
E030
F070
F070
7FE0
1FC0
ENDCHAR
STARTCHAR 0037
ENCODING 55
SWIDTH 600 0
DWIDTH 15 0
BBX 12 17 1 1
BITMAP
FFF0
FFF0
0030
0030
0070
0070
00E0
03C0
07C0
0780
0700
0700
0700
0700
0700
0700
0700
ENDCHAR
STARTCHAR 0038
ENCODING 56
SWIDTH 600 0
DWIDTH 15 0
BBX 12 17 1 1
BITMAP
1FC0
7FE0
F070
F070
E030
E030
F070
7FE0
7FE0
F070
F070
E030
E030
F070
7C70
7FE0
1FC0
ENDCHAR
STARTCHAR 0039
ENCODING 57
SWIDTH 600 0
DWIDTH 15 0
BBX 12 17 1 1
BITMAP
1FC0
7FE0
F070
F070
E030
E030
F030
7FF0
1FF0
0030
0030
0030
E030
F070
7C70
7FE0
1FC0
ENDCHAR
STARTCHAR 003A
ENCODING 58
SWIDTH 600 0
DWIDTH 15 0
BBX 2 12 5 4
BITMAP
C0
C0
00
00
00
00
00
00
00
00
C0
C0
ENDCHAR
STARTCHAR 003B
ENCODING 59
SWIDTH 600 0
DWIDTH 15 0
BBX 5 15 2 1
BITMAP
18
18
00
00
00
00
00
00
00
00
18
18
18
30
E0
ENDCHAR
STARTCHAR 003C
ENCODING 60
SWIDTH 600 0
DWIDTH 15 0
BBX 10 19 2 1
BITMAP
00C0
00C0
01C0
0780
0F00
1E00
3E00
3800
F000
E000
F000
F800
3800
1E00
0F00
0780
07C0
01C0
00C0
ENDCHAR
STARTCHAR 003D
ENCODING 61
SWIDTH 600 0
DWIDTH 15 0
BBX 12 7 1 6
BITMAP
FFF0
FFF0
0000
0000
0000
FFF0
FFF0
ENDCHAR
STARTCHAR 003E
ENCODING 62
SWIDTH 600 0
DWIDTH 15 0
BBX 10 19 2 1
BITMAP
E000
E000
F000
3800
1E00
0F00
0F80
0780
01C0
00C0
01C0
07C0
0780
0F00
1E00
3800
F800
F000
E000
ENDCHAR
STARTCHAR 003F
ENCODING 63
SWIDTH 600 0
DWIDTH 15 0
BBX 12 17 1 1
BITMAP
7FE0
7FE0
F070
F070
0030
0030
0070
0070
00E0
03C0
0780
0700
0700
0000
0000
0700
0700
ENDCHAR
STARTCHAR 0040
ENCODING 64
SWIDTH 600 0
DWIDTH 15 0
BBX 12 16 1 2
BITMAP
1FC0
1FC0
E030
E030
8C90
9B90
9B90
9B90
9B90
9BB0
8F60
8F60
7060
7060
1FC0
1FC0
ENDCHAR
STARTCHAR 0041
ENCODING 65
SWIDTH 600 0
DWIDTH 15 0
BBX 12 17 1 1
BITMAP
0700
0F80
1FC0
1FC0
78E0
F070
E030
E030
E030
E030
FFF0
FFF0
E030
E030
E030
E030
E030
ENDCHAR
STARTCHAR 0042
ENCODING 66
SWIDTH 600 0
DWIDTH 15 0
BBX 12 17 1 1
BITMAP
FFC0
FFE0
E070
E030
E030
E030
E070
FFE0
FFE0
E070
E070
E030
E030
E070
E070
FFE0
FFC0
ENDCHAR
STARTCHAR 0043
ENCODING 67
SWIDTH 600 0
DWIDTH 15 0
BBX 12 17 1 1
BITMAP
7FE0
7FE0
F070
F070
E000
E000
E000
E000
E000
E000
E000
E000
E030
F070
F070
7FE0
1FC0
ENDCHAR
STARTCHAR 0044
ENCODING 68
SWIDTH 600 0
DWIDTH 15 0
BBX 12 17 1 1
BITMAP
FFC0
FFE0
E070
E030
E030
E030
E030
E030
E030
E030
E030
E030
E030
E030
E070
FFE0
FFC0
ENDCHAR
STARTCHAR 0045
ENCODING 69
SWIDTH 600 0
DWIDTH 15 0
BBX 12 17 1 1
BITMAP
FFF0
FFF0
E000
E000
E000
E000
E000
FFC0
FFC0
E000
E000
E000
E000
E000
E000
FFF0
FFF0
ENDCHAR
STARTCHAR 0046
ENCODING 70
SWIDTH 600 0
DWIDTH 15 0
BBX 12 17 1 1
BITMAP
FFF0
FFF0
E000
E000
E000
E000
E000
FFC0
FFC0
E000
E000
E000
E000
E000
E000
E000
E000
ENDCHAR
STARTCHAR 0047
ENCODING 71
SWIDTH 600 0
DWIDTH 15 0
BBX 12 17 1 1
BITMAP
7FE0
7FE0
F070
F070
E000
E000
E000
E3F0
E3F0
E030
E030
E030
E030
F070
F070
7FE0
1FC0
ENDCHAR
STARTCHAR 0048
ENCODING 72
SWIDTH 600 0
DWIDTH 15 0
BBX 12 17 1 1
BITMAP
E030
E030
E030
E030
E030
E030
E030
FFF0
FFF0
E030
E030
E030
E030
E030
E030
E030
E030
ENDCHAR
STARTCHAR 0049
ENCODING 73
SWIDTH 600 0
DWIDTH 15 0
BBX 7 17 4 1
BITMAP
FE
FE
38
38
38
38
38
38
38
38
38
38
38
38
38
FE
FE
ENDCHAR
STARTCHAR 004A
ENCODING 74
SWIDTH 600 0
DWIDTH 15 0
BBX 12 17 1 1
BITMAP
07F0
07F0
00C0
00C0
00C0
00C0
00C0
00C0
00C0
00C0
00C0
00C0
E0C0
F3C0
7BC0
7F80
1F00
ENDCHAR
STARTCHAR 004B
ENCODING 75
SWIDTH 600 0
DWIDTH 15 0
BBX 12 17 1 1
BITMAP
E030
E070
E0E0
E3C0
E7C0
E780
EF00
FC00
FC00
FF00
EF00
E780
E3C0
E0E0
E0F0
E070
E030
ENDCHAR
STARTCHAR 004C
ENCODING 76
SWIDTH 600 0
DWIDTH 15 0
BBX 12 17 1 1
BITMAP
E000
E000
E000
E000
E000
E000
E000
E000
E000
E000
E000
E000
E000
E000
E000
FFF0
FFF0
ENDCHAR
STARTCHAR 004D
ENCODING 77
SWIDTH 600 0
DWIDTH 15 0
BBX 12 17 1 1
BITMAP
E030
E030
F070
F8F0
F8F0
FFF0
EFB0
E730
E730
E730
E030
E030
E030
E030
E030
E030
E030
ENDCHAR
STARTCHAR 004E
ENCODING 78
SWIDTH 600 0
DWIDTH 15 0
BBX 12 17 1 1
BITMAP
E030
E030
E030
E030
F030
F830
FC30
EF30
E730
E7B0
E3F0
E0F0
E070
E030
E030
E030
E030
ENDCHAR
STARTCHAR 004F
ENCODING 79
SWIDTH 600 0
DWIDTH 15 0
BBX 12 17 1 1
BITMAP
1FC0
7FE0
F070
F070
E030
E030
E030
E030
E030
E030
E030
E030
E030
F070
F070
7FE0
1FC0
ENDCHAR
STARTCHAR 0050
ENCODING 80
SWIDTH 600 0
DWIDTH 15 0
BBX 12 17 1 1
BITMAP
FFC0
FFE0
E070
E030
E030
E030
E070
FFE0
FFC0
E000
E000
E000
E000
E000
E000
E000
E000
ENDCHAR
STARTCHAR 0051
ENCODING 81
SWIDTH 600 0
DWIDTH 15 0
BBX 12 17 1 1
BITMAP
1FC0
7FE0
F070
F070
E030
E030
E030
E030
E030
E730
E7B0
E7F0
E3F0
F0E0
F0E0
7FF0
1F30
ENDCHAR
STARTCHAR 0052
ENCODING 82
SWIDTH 600 0
DWIDTH 15 0
BBX 12 17 1 1
BITMAP
FFC0
FFE0
E070
E030
E030
E030
E070
FFE0
FFC0
EF00
E780
E780
E3C0
E0E0
E070
E070
E030
ENDCHAR
STARTCHAR 0053
ENCODING 83
SWIDTH 600 0
DWIDTH 15 0
BBX 12 17 1 1
BITMAP
7FE0
7FE0
F070
F070
E000
E000
F000
7FC0
1FE0
0070
0030
0030
E030
F070
F070
7FE0
1FC0
ENDCHAR
STARTCHAR 0054
ENCODING 84
SWIDTH 600 0
DWIDTH 15 0
BBX 12 17 1 1
BITMAP
FFF0
FFF0
0700
0700
0700
0700
0700
0700
0700
0700
0700
0700
0700
0700
0700
0700
0700
ENDCHAR
STARTCHAR 0055
ENCODING 85
SWIDTH 600 0
DWIDTH 15 0
BBX 12 17 1 1
BITMAP
E030
E030
E030
E030
E030
E030
E030
E030
E030
E030
E030
E030
E030
F070
F070
7FE0
1FC0
ENDCHAR
STARTCHAR 0056
ENCODING 86
SWIDTH 600 0
DWIDTH 15 0
BBX 12 17 1 1
BITMAP
E030
E030
E030
E030
E030
E030
E030
E030
E030
E030
E030
F070
78E0
1FC0
1FC0
0F80
0700
ENDCHAR
STARTCHAR 0057
ENCODING 87
SWIDTH 600 0
DWIDTH 15 0
BBX 12 17 1 1
BITMAP
E030
E030
E030
E030
E030
E030
E030
E730
E730
E730
E730
E730
E730
FFF0
FFF0
7FE0
18C0
ENDCHAR
STARTCHAR 0058
ENCODING 88
SWIDTH 600 0
DWIDTH 15 0
BBX 12 17 1 1
BITMAP
E030
E030
E030
F070
F070
78E0
1FC0
0F80
0F80
1FC0
1FC0
78E0
F070
E030
E030
E030
E030
ENDCHAR
STARTCHAR 0059
ENCODING 89
SWIDTH 600 0
DWIDTH 15 0
BBX 12 17 1 1
BITMAP
E030
E030
E030
E030
E030
E030
F070
78E0
7FE0
1FC0
0F80
0700
0700
0700
0700
0700
0700
ENDCHAR
STARTCHAR 005A
ENCODING 90
SWIDTH 600 0
DWIDTH 15 0
BBX 12 17 1 1
BITMAP
FFF0
FFF0
0030
0070
00F0
00E0
03C0
07C0
0F80
1F00
1C00
7800
F800
F000
E000
FFF0
FFF0
ENDCHAR
STARTCHAR 005B
ENCODING 91
SWIDTH 600 0
DWIDTH 15 0
BBX 7 20 5 1
BITMAP
FE
FE
C0
C0
C0
C0
C0
C0
C0
C0
C0
C0
C0
C0
C0
C0
C0
C0
FE
FE
ENDCHAR
STARTCHAR 005C
ENCODING 92
SWIDTH 600 0
DWIDTH 15 0
BBX 12 17 1 1
BITMAP
E000
E000
E000
E000
F000
7800
1C00
0F00
0F80
0780
03C0
00E0
0070
0030
0030
0030
0030
ENDCHAR
STARTCHAR 005D
ENCODING 93
SWIDTH 600 0
DWIDTH 15 0
BBX 8 20 2 1
BITMAP
FF
FF
07
07
07
07
07
07
07
07
07
07
07
07
07
07
07
07
FF
FF
ENDCHAR
STARTCHAR 005E
ENCODING 94
SWIDTH 600 0
DWIDTH 15 0
BBX 12 6 1 12
BITMAP
0F80
0F80
1FC0
1FC0
F070
F070
ENDCHAR
STARTCHAR 005F
ENCODING 95
SWIDTH 600 0
DWIDTH 15 0
BBX 15 2 0 0
BITMAP
FFFE
FFFE
ENDCHAR
STARTCHAR 0060
ENCODING 96
SWIDTH 600 0
DWIDTH 15 0
BBX 6 3 4 15
BITMAP
E0
78
1C
ENDCHAR
STARTCHAR 0061
ENCODING 97
SWIDTH 600 0
DWIDTH 15 0
BBX 12 15 1 1
BITMAP
1FC0
1FE0
0070
0030
0030
1FB0
7FF0
F070
E030
E030
E030
F070
F070
1FB0
1FB0
ENDCHAR
STARTCHAR 0062
ENCODING 98
SWIDTH 600 0
DWIDTH 15 0
BBX 12 17 1 1
BITMAP
E000
E000
E000
E780
EFC0
FFE0
FCE0
F870
F030
F030
F030
F030
F870
FCE0
FFE0
EFC0
E780
ENDCHAR
STARTCHAR 0063
ENCODING 99
SWIDTH 600 0
DWIDTH 15 0
BBX 12 13 1 1
BITMAP
7FE0
7FE0
F070
F070
E000
E000
E000
E000
E030
F070
73F0
7FE0
1FC0
ENDCHAR
STARTCHAR 0064
ENCODING 100
SWIDTH 600 0
DWIDTH 15 0
BBX 12 17 1 1
BITMAP
0030
0030
0030
0F30
1FB0
7FF0
7BF0
F0F0
E070
E070
E070
E070
F0F0
7BF0
7FF0
1FB0
0F30
ENDCHAR
STARTCHAR 0065
ENCODING 101
SWIDTH 600 0
DWIDTH 15 0
BBX 12 14 1 1
BITMAP
1C00
1FC0
7FE0
F070
E030
E030
FFF0
FFE0
E000
E000
F070
F0F0
1FC0
1FC0
ENDCHAR
STARTCHAR 0066
ENCODING 102
SWIDTH 600 0
DWIDTH 15 0
BBX 10 17 2 1
BITMAP
07C0
0FC0
0E00
0E00
FFC0
FFC0
0E00
0E00
0E00
0E00
0E00
0E00
0E00
0E00
0E00
0E00
0E00
ENDCHAR
STARTCHAR 0067
ENCODING 103
SWIDTH 600 0
DWIDTH 15 0
BBX 12 15 1 1
BITMAP
1FC0
7FE0
F070
F070
E030
F070
7FF0
1FB0
0030
0030
0030
7070
7070
1FC0
1FC0
ENDCHAR
STARTCHAR 0068
ENCODING 104
SWIDTH 600 0
DWIDTH 15 0
BBX 12 17 1 1
BITMAP
E000
E000
E000
E780
EFC0
FFE0
FCE0
F870
F030
E030
E030
E030
E030
E030
E030
E030
E030
ENDCHAR
STARTCHAR 0069
ENCODING 105
SWIDTH 600 0
DWIDTH 15 0
BBX 7 16 4 1
BITMAP
38
38
00
00
00
F8
F8
38
38
38
38
38
3C
1C
1E
06
ENDCHAR
STARTCHAR 006A
ENCODING 106
SWIDTH 600 0
DWIDTH 15 0
BBX 7 18 4 1
BITMAP
06
06
00
00
00
3E
3E
06
06
06
06
06
06
06
06
1E
FC
F8
ENDCHAR
STARTCHAR 006B
ENCODING 107
SWIDTH 600 0
DWIDTH 15 0
BBX 12 17 1 1
BITMAP
E000
E000
E000
E000
E030
E070
E0E0
E3C0
E3C0
E780
EF00
FF80
FFC0
FBC0
F0E0
E070
E030
ENDCHAR
STARTCHAR 006C
ENCODING 108
SWIDTH 600 0
DWIDTH 15 0
BBX 3 17 6 1
BITMAP
E0
E0
E0
E0
E0
E0
E0
E0
E0
E0
E0
E0
E0
E0
E0
E0
E0
ENDCHAR
STARTCHAR 006D
ENCODING 109
SWIDTH 600 0
DWIDTH 15 0
BBX 12 13 1 1
BITMAP
EFC0
FFE0
F770
E730
E730
E730
E730
E730
E730
E730
E730
E730
E730
ENDCHAR
STARTCHAR 006E
ENCODING 110
SWIDTH 600 0
DWIDTH 15 0
BBX 12 13 1 1
BITMAP
EFC0
FFE0
F070
E030
E030
E030
E030
E030
E030
E030
E030
E030
E030
ENDCHAR
STARTCHAR 006F
ENCODING 111
SWIDTH 600 0
DWIDTH 15 0
BBX 12 13 1 1
BITMAP
1FC0
7FE0
F070
F070
E030
E030
E030
E030
E030
F070
F070
7FE0
1FC0
ENDCHAR
STARTCHAR 0070
ENCODING 112
SWIDTH 600 0
DWIDTH 15 0
BBX 12 15 1 1
BITMAP
EFC0
FFE0
F870
F870
F030
F030
F030
F870
F870
FFE0
EFC0
E000
E000
E000
E000
ENDCHAR
STARTCHAR 0071
ENCODING 113
SWIDTH 600 0
DWIDTH 15 0
BBX 12 15 1 1
BITMAP
1FB0
7FF0
F0F0
F0F0
E070
E070
E070
E070
F0F0
7FF0
1F70
0030
0030
0030
0030
ENDCHAR
STARTCHAR 0072
ENCODING 114
SWIDTH 600 0
DWIDTH 15 0
BBX 12 14 1 1
BITMAP
00C0
EFE0
EFE0
FC70
F830
F000
E000
E000
E000
E000
E000
E000
E000
E000
ENDCHAR
STARTCHAR 0073
ENCODING 115
SWIDTH 600 0
DWIDTH 15 0
BBX 12 13 1 1
BITMAP
7FE0
7FE0
F070
F030
7F00
6F40
03E0
03E0
E070
F070
7070
7FE0
1FC0
ENDCHAR
STARTCHAR 0074
ENCODING 116
SWIDTH 600 0
DWIDTH 15 0
BBX 7 17 4 1
BITMAP
38
38
38
38
FE
FE
38
38
38
38
38
38
38
3C
3C
1E
06
ENDCHAR
STARTCHAR 0075
ENCODING 117
SWIDTH 600 0
DWIDTH 15 0
BBX 12 14 1 1
BITMAP
E030
E030
E030
E030
E030
E030
E030
E030
E030
E030
F070
F070
7FE0
1FC0
ENDCHAR
STARTCHAR 0076
ENCODING 118
SWIDTH 600 0
DWIDTH 15 0
BBX 12 14 1 1
BITMAP
E030
E030
E030
E030
E030
E030
E030
E030
F070
78E0
1FC0
1FC0
0F80
0700
ENDCHAR
STARTCHAR 0077
ENCODING 119
SWIDTH 600 0
DWIDTH 15 0
BBX 12 14 1 1
BITMAP
E030
E030
E030
E030
E030
E030
E730
E730
E730
E730
F770
F770
7FE0
18C0
ENDCHAR
STARTCHAR 0078
ENCODING 120
SWIDTH 600 0
DWIDTH 15 0
BBX 12 14 1 1
BITMAP
0010
F070
F070
78E0
3BE0
0F80
0F80
0700
0F80
1FC0
78E0
78E0
F070
E030
ENDCHAR
STARTCHAR 0079
ENCODING 121
SWIDTH 600 0
DWIDTH 15 0
BBX 12 15 1 1
BITMAP
E030
E030
E070
E070
E070
E0F0
F3F0
F3F0
7FB0
1F30
0030
0030
0070
1FE0
1FC0
ENDCHAR
STARTCHAR 007A
ENCODING 122
SWIDTH 600 0
DWIDTH 15 0
BBX 12 13 1 1
BITMAP
FFF0
FFF0
0070
00F0
00E0
03C0
0780
0F00
1F00
1C00
7800
FFF0
FFF0
ENDCHAR
STARTCHAR 007B
ENCODING 123
SWIDTH 600 0
DWIDTH 15 0
BBX 7 20 4 1
BITMAP
1E
1E
1E
3E
38
38
38
38
38
E0
E0
38
38
38
38
38
3E
1E
1E
1E
ENDCHAR
STARTCHAR 007C
ENCODING 124
SWIDTH 600 0
DWIDTH 15 0
BBX 3 20 6 1
BITMAP
E0
E0
E0
E0
E0
E0
E0
E0
E0
E0
E0
E0
E0
E0
E0
E0
E0
E0
E0
E0
ENDCHAR
STARTCHAR 007D
ENCODING 125
SWIDTH 600 0
DWIDTH 15 0
BBX 7 20 4 1
BITMAP
E0
E0
E0
F8
38
38
38
38
38
1E
1E
38
38
38
38
38
F8
E0
E0
E0
ENDCHAR
STARTCHAR 007E
ENCODING 126
SWIDTH 600 0
DWIDTH 15 0
BBX 12 4 1 8
BITMAP
1C10
7F30
E7E0
83C0
ENDCHAR
STARTCHAR 00A0
ENCODING 160
SWIDTH 600 0
DWIDTH 15 0
BBX 0 0 0 0
BITMAP
ENDCHAR
STARTCHAR 00A1
ENCODING 161
SWIDTH 600 0
DWIDTH 15 0
BBX 3 17 7 1
BITMAP
E0
E0
00
00
00
E0
E0
E0
E0
E0
E0
E0
E0
E0
E0
E0
E0
ENDCHAR
STARTCHAR 00A2
ENCODING 162
SWIDTH 600 0
DWIDTH 15 0
BBX 12 17 1 1
BITMAP
0700
0700
1FC0
7FE0
F770
F770
E730
E700
E700
E730
E730
77F0
7FF0
1FC0
1FC0
0700
0700
ENDCHAR
STARTCHAR 00A3
ENCODING 163
SWIDTH 600 0
DWIDTH 15 0
BBX 12 20 1 1
BITMAP
07C0
0FE0
1CF0
1C70
1830
1800
1800
1800
FFC0
FFC0
1800
1800
1800
1800
1800
1800
1800
7000
FFF0
FFF0
ENDCHAR
STARTCHAR 00A5
ENCODING 165
SWIDTH 600 0
DWIDTH 15 0
BBX 10 17 2 1
BITMAP
E0C0
E0C0
E0C0
E0C0
3180
3180
1F00
1F00
1F00
FFC0
FFC0
0E00
0E00
FFC0
FFC0
0E00
0E00
ENDCHAR
STARTCHAR 00A6
ENCODING 166
SWIDTH 600 0
DWIDTH 15 0
BBX 3 20 6 1
BITMAP
E0
E0
E0
E0
E0
E0
E0
E0
E0
00
00
E0
E0
E0
E0
E0
E0
E0
E0
E0
ENDCHAR
STARTCHAR 00A8
ENCODING 168
SWIDTH 600 0
DWIDTH 15 0
BBX 7 2 4 16
BITMAP
C6
C6
ENDCHAR
STARTCHAR 00A9
ENCODING 169
SWIDTH 600 0
DWIDTH 15 0
BBX 12 14 1 4
BITMAP
1FC0
1FC0
E7B0
E7B0
8C10
8810
8810
8810
8810
8C10
E7B0
E7B0
1FC0
1FC0
ENDCHAR
STARTCHAR 00AA
ENCODING 170
SWIDTH 600 0
DWIDTH 15 0
BBX 9 13 2 5
BITMAP
3F00
3F00
E180
FF80
3F80
E180
C180
E180
3E80
3E80
0000
FF80
FF80
ENDCHAR
STARTCHAR 00AB
ENCODING 171
SWIDTH 600 0
DWIDTH 15 0
BBX 12 10 1 4
BITMAP
0410
0C30
1860
70C0
E380
E380
70C0
1860
0C30
0410
ENDCHAR
STARTCHAR 00AD
ENCODING 173
SWIDTH 600 0
DWIDTH 15 0
BBX 10 2 2 9
BITMAP
FFC0
FFC0
ENDCHAR
STARTCHAR 00AE
ENCODING 174
SWIDTH 600 0
DWIDTH 15 0
BBX 12 12 1 6
BITMAP
1FC0
1FC0
EF30
EF30
8890
8F10
8F10
8890
E8B0
E8B0
1FC0
1FC0
ENDCHAR
STARTCHAR 00B0
ENCODING 176
SWIDTH 600 0
DWIDTH 15 0
BBX 10 10 1 8
BITMAP
1F00
7F80
F3C0
F3C0
E0C0
E0C0
F3C0
7F80
7F80
1F00
ENDCHAR
STARTCHAR 00B2
ENCODING 178
SWIDTH 600 0
DWIDTH 15 0
BBX 6 8 4 12
BITMAP
FC
DC
1C
78
78
C0
FC
FC
ENDCHAR
STARTCHAR 00B3
ENCODING 179
SWIDTH 600 0
DWIDTH 15 0
BBX 6 9 4 12
BITMAP
FC
DC
1C
38
38
1C
1C
DC
FC
ENDCHAR
STARTCHAR 00B4
ENCODING 180
SWIDTH 600 0
DWIDTH 15 0
BBX 6 3 5 15
BITMAP
3C
78
C0
ENDCHAR
STARTCHAR 00B9
ENCODING 185
SWIDTH 600 0
DWIDTH 15 0
BBX 5 9 5 12
BITMAP
70
F0
F0
70
70
70
70
F8
F8
ENDCHAR
STARTCHAR 00BA
ENCODING 186
SWIDTH 600 0
DWIDTH 15 0
BBX 9 13 2 5
BITMAP
1E00
3F00
E180
E180
E180
E180
E180
3F00
1E00
0000
0000
FF80
FF80
ENDCHAR
STARTCHAR 00BB
ENCODING 187
SWIDTH 600 0
DWIDTH 15 0
BBX 12 10 1 4
BITMAP
8300
E380
70C0
1860
0C30
0C30
1860
70C0
E380
8300
ENDCHAR
STARTCHAR 00BC
ENCODING 188
SWIDTH 600 0
DWIDTH 15 0
BBX 12 19 1 1
BITMAP
F060
F060
7040
70C0
7080
7380
FB00
FB00
0700
0C00
0860
18E0
10A0
10A0
63F0
63F0
E020
8020
8020
ENDCHAR
STARTCHAR 00BD
ENCODING 189
SWIDTH 600 0
DWIDTH 15 0
BBX 12 20 1 1
BITMAP
F060
F060
7040
70C0
70C0
7080
7380
FB00
FB00
0700
0C00
1BF0
1BB0
1030
70E0
70E0
6380
E380
83F0
83F0
ENDCHAR
STARTCHAR 00BE
ENCODING 190
SWIDTH 600 0
DWIDTH 15 0
BBX 12 20 1 1
BITMAP
FC30
EC30
0C20
0C20
1860
1860
8CC0
ECC0
7880
0380
0700
0460
0CE0
08A0
08A0
13F0
13F0
7020
6020
6020
ENDCHAR
STARTCHAR 00BF
ENCODING 191
SWIDTH 600 0
DWIDTH 15 0
BBX 12 17 1 1
BITMAP
0700
0700
0000
0000
0700
0700
0F00
1C00
7800
F000
F000
E000
E030
F070
F070
7FE0
1FC0
ENDCHAR
STARTCHAR 00C0
ENCODING 192
SWIDTH 600 0
DWIDTH 15 0
BBX 12 20 1 1
BITMAP
1C00
0F00
0380
0000
0000
0700
0F80
1FC0
1FC0
78E0
F070
E030
E030
E030
FFF0
FFF0
E030
E030
E030
E030
ENDCHAR
STARTCHAR 00C1
ENCODING 193
SWIDTH 600 0
DWIDTH 15 0
BBX 12 20 1 1
BITMAP
03C0
0780
0C00
0000
0000
0700
0F80
1FC0
1FC0
78E0
F070
E030
E030
E030
FFF0
FFF0
E030
E030
E030
E030
ENDCHAR
STARTCHAR 00C2
ENCODING 194
SWIDTH 600 0
DWIDTH 15 0
BBX 12 19 1 1
BITMAP
0700
0700
18C0
18C0
0700
0F80
1FC0
1FC0
78E0
F070
E030
E030
E030
FFF0
FFF0
E030
E030
E030
E030
ENDCHAR
STARTCHAR 00C3
ENCODING 195
SWIDTH 600 0
DWIDTH 15 0
BBX 12 20 1 1
BITMAP
0C40
0C40
1380
1380
0000
0700
0F80
1FC0
1FC0
78E0
F070
E030
E030
E030
FFF0
FFF0
E030
E030
E030
E030
ENDCHAR
STARTCHAR 00C4
ENCODING 196
SWIDTH 600 0
DWIDTH 15 0
BBX 12 20 1 1
BITMAP
18C0
18C0
0000
0000
0000
0700
0F80
1FC0
1FC0
78E0
F070
E030
E030
E030
FFF0
FFF0
E030
E030
E030
E030
ENDCHAR
STARTCHAR 00C5
ENCODING 197
SWIDTH 600 0
DWIDTH 15 0
BBX 12 20 1 1
BITMAP
0700
0700
0880
0880
0700
0700
0F80
1FC0
1FC0
78E0
F070
E030
E030
E030
FFF0
FFF0
E030
E030
E030
E030
ENDCHAR
STARTCHAR 00C6
ENCODING 198
SWIDTH 600 0
DWIDTH 15 0
BBX 12 18 1 1
BITMAP
03F0
07F0
0F80
1F80
7F80
7B80
7380
E3F0
E3F0
E380
E380
FF80
FF80
E380
E380
E380
E3F0
E3F0
ENDCHAR
STARTCHAR 00C7
ENCODING 199
SWIDTH 600 0
DWIDTH 15 0
BBX 12 17 1 1
BITMAP
7FE0
7FE0
F070
F070
E000
E000
E000
E000
E030
F070
F070
7FE0
1FC0
0780
0F00
0F00
1C00
ENDCHAR
STARTCHAR 00C8
ENCODING 200
SWIDTH 600 0
DWIDTH 15 0
BBX 12 20 1 1
BITMAP
1C00
0F00
0380
0000
0000
FFF0
FFF0
E000
E000
E000
E000
FFC0
FFC0
E000
E000
E000
E000
E000
FFF0
FFF0
ENDCHAR
STARTCHAR 00C9
ENCODING 201
SWIDTH 600 0
DWIDTH 15 0
BBX 12 20 1 1
BITMAP
03C0
0780
0C00
0000
0000
FFF0
FFF0
E000
E000
E000
E000
FFC0
FFC0
E000
E000
E000
E000
E000
FFF0
FFF0
ENDCHAR
STARTCHAR 00CA
ENCODING 202
SWIDTH 600 0
DWIDTH 15 0
BBX 12 19 1 1
BITMAP
0700
0700
18C0
18C0
FFF0
FFF0
E000
E000
E000
E000
FFC0
FFC0
E000
E000
E000
E000
E000
FFF0
FFF0
ENDCHAR
STARTCHAR 00CB
ENCODING 203
SWIDTH 600 0
DWIDTH 15 0
BBX 12 20 1 1
BITMAP
18C0
18C0
0000
0000
0000
FFF0
FFF0
E000
E000
E000
E000
FFC0
FFC0
E000
E000
E000
E000
E000
FFF0
FFF0
ENDCHAR
STARTCHAR 00CC
ENCODING 204
SWIDTH 600 0
DWIDTH 15 0
BBX 7 20 4 1
BITMAP
E0
78
1C
00
00
FE
FE
38
38
38
38
38
38
38
38
38
38
38
FE
FE
ENDCHAR
STARTCHAR 00CD
ENCODING 205
SWIDTH 600 0
DWIDTH 15 0
BBX 7 20 4 1
BITMAP
1E
3C
60
00
00
FE
FE
38
38
38
38
38
38
38
38
38
38
38
FE
FE
ENDCHAR
STARTCHAR 00CE
ENCODING 206
SWIDTH 600 0
DWIDTH 15 0
BBX 7 19 4 1
BITMAP
38
38
C6
C6
FE
FE
38
38
38
38
38
38
38
38
38
38
38
FE
FE
ENDCHAR
STARTCHAR 00CF
ENCODING 207
SWIDTH 600 0
DWIDTH 15 0
BBX 7 20 4 1
BITMAP
C6
C6
00
00
00
FE
FE
38
38
38
38
38
38
38
38
38
38
38
FE
FE
ENDCHAR
STARTCHAR 00D0
ENCODING 208
SWIDTH 600 0
DWIDTH 15 0
BBX 12 17 1 1
BITMAP
7FC0
7FE0
7070
7030
7030
7030
7030
FC30
FC30
7030
7030
7030
7030
7030
7070
7FE0
7FC0
ENDCHAR
STARTCHAR 00D1
ENCODING 209
SWIDTH 600 0
DWIDTH 15 0
BBX 12 20 1 1
BITMAP
0C40
0C40
1380
1380
0000
E030
E030
F030
F030
F830
FC30
EF30
EFB0
E7B0
E3F0
E0F0
E070
E070
E030
E030
ENDCHAR
STARTCHAR 00D2
ENCODING 210
SWIDTH 600 0
DWIDTH 15 0
BBX 12 20 1 1
BITMAP
1C00
0F00
0380
0000
0000
1FC0
7FE0
F070
F070
E030
E030
E030
E030
E030
E030
E030
F070
F070
7FE0
1FC0
ENDCHAR
STARTCHAR 00D3
ENCODING 211
SWIDTH 600 0
DWIDTH 15 0
BBX 12 20 1 1
BITMAP
03C0
0780
0C00
0000
0000
1FC0
7FE0
F070
F070
E030
E030
E030
E030
E030
E030
E030
F070
F070
7FE0
1FC0
ENDCHAR
STARTCHAR 00D4
ENCODING 212
SWIDTH 600 0
DWIDTH 15 0
BBX 12 19 1 1
BITMAP
0700
0700
18C0
18C0
1FC0
7FE0
F070
F070
E030
E030
E030
E030
E030
E030
E030
F070
F070
7FE0
1FC0
ENDCHAR
STARTCHAR 00D5
ENCODING 213
SWIDTH 600 0
DWIDTH 15 0
BBX 12 20 1 1
BITMAP
0C40
0C40
1380
1380
0000
1FC0
7FE0
F070
F070
E030
E030
E030
E030
E030
E030
E030
F070
F070
7FE0
1FC0
ENDCHAR
STARTCHAR 00D6
ENCODING 214
SWIDTH 600 0
DWIDTH 15 0
BBX 12 20 1 1
BITMAP
18C0
18C0
0000
0000
0000
1FC0
7FE0
F070
F070
E030
E030
E030
E030
E030
E030
E030
F070
F070
7FE0
1FC0
ENDCHAR
STARTCHAR 00D8
ENCODING 216
SWIDTH 600 0
DWIDTH 15 0
BBX 12 17 1 1
BITMAP
1FB0
7FF0
F0E0
E0F0
E3F0
E3B0
E3B0
E7B0
E730
EF30
EC30
EC30
FC30
F830
7870
FFE0
EFC0
ENDCHAR
STARTCHAR 00D9
ENCODING 217
SWIDTH 600 0
DWIDTH 15 0
BBX 12 20 1 1
BITMAP
1C00
0F00
0380
0000
0000
E030
E030
E030
E030
E030
E030
E030
E030
E030
E030
E030
F070
F070
7FE0
1FC0
ENDCHAR
STARTCHAR 00DA
ENCODING 218
SWIDTH 600 0
DWIDTH 15 0
BBX 12 20 1 1
BITMAP
03C0
0780
0C00
0000
0000
E030
E030
E030
E030
E030
E030
E030
E030
E030
E030
E030
F070
F070
7FE0
1FC0
ENDCHAR
STARTCHAR 00DB
ENCODING 219
SWIDTH 600 0
DWIDTH 15 0
BBX 12 19 1 1
BITMAP
0700
0700
18C0
18C0
E030
E030
E030
E030
E030
E030
E030
E030
E030
E030
E030
F070
F070
7FE0
1FC0
ENDCHAR
STARTCHAR 00DC
ENCODING 220
SWIDTH 600 0
DWIDTH 15 0
BBX 12 20 1 1
BITMAP
18C0
18C0
0000
0000
0000
E030
E030
E030
E030
E030
E030
E030
E030
E030
E030
E030
F070
F070
7FE0
1FC0
ENDCHAR
STARTCHAR 00DD
ENCODING 221
SWIDTH 600 0
DWIDTH 15 0
BBX 12 20 1 1
BITMAP
03C0
0780
0C00
0000
0000
E030
E030
E030
E030
F070
78E0
1FC0
1FC0
0F80
0700
0700
0700
0700
0700
0700
ENDCHAR
STARTCHAR 00DE
ENCODING 222
SWIDTH 600 0
DWIDTH 15 0
BBX 12 19 1 1
BITMAP
E000
E000
E000
E000
FFC0
FFE0
E070
E030
E030
E030
E030
E030
E070
FFE0
FFC0
E000
E000
E000
E000
ENDCHAR
STARTCHAR 00DF
ENCODING 223
SWIDTH 600 0
DWIDTH 15 0
BBX 11 20 1 1
BITMAP
1800
1800
7F00
F780
E380
E380
E380
E380
E700
E700
E700
E780
E780
E3C0
E0E0
E060
E060
E060
EFE0
EFC0
ENDCHAR
STARTCHAR 00E0
ENCODING 224
SWIDTH 600 0
DWIDTH 15 0
BBX 12 17 1 1
BITMAP
1C00
0F00
0380
0000
0000
1FC0
1FE0
0030
1FB0
1FB0
F070
F070
E030
F070
F070
1FB0
1FB0
ENDCHAR
STARTCHAR 00E1
ENCODING 225
SWIDTH 600 0
DWIDTH 15 0
BBX 12 17 1 1
BITMAP
03C0
0780
0C00
0000
0000
1FC0
1FE0
0030
1FB0
1FB0
F070
F070
E030
F070
F070
1FB0
1FB0
ENDCHAR
STARTCHAR 00E2
ENCODING 226
SWIDTH 600 0
DWIDTH 15 0
BBX 12 17 1 1
BITMAP
0700
0700
18C0
18C0
0000
1FC0
1FE0
0030
1FB0
1FB0
F070
F070
E030
F070
F070
1FB0
1FB0
ENDCHAR
STARTCHAR 00E3
ENCODING 227
SWIDTH 600 0
DWIDTH 15 0
BBX 12 17 1 1
BITMAP
0C40
1FC0
1380
0000
0000
1FC0
1FE0
0030
1FB0
1FB0
F070
F070
E030
F070
F070
1FB0
1FB0
ENDCHAR
STARTCHAR 00E4
ENCODING 228
SWIDTH 600 0
DWIDTH 15 0
BBX 12 17 1 1
BITMAP
18C0
18C0
0000
0000
0000
1FC0
1FE0
0030
1FB0
1FB0
F070
F070
E030
F070
F070
1FB0
1FB0
ENDCHAR
STARTCHAR 00E5
ENCODING 229
SWIDTH 600 0
DWIDTH 15 0
BBX 12 17 1 1
BITMAP
0700
0F00
0880
0700
0700
1FC0
1FE0
0030
1FB0
1FB0
F070
F070
E030
F070
F070
1FB0
1FB0
ENDCHAR
STARTCHAR 00E6
ENCODING 230
SWIDTH 600 0
DWIDTH 15 0
BBX 12 13 1 1
BITMAP
F8E0
FFF0
0730
0730
0730
7FF0
FFF0
E700
E700
E700
E700
FFE0
7CE0
ENDCHAR
STARTCHAR 00E7
ENCODING 231
SWIDTH 600 0
DWIDTH 15 0
BBX 12 16 1 1
BITMAP
1FC0
7FE0
FC70
F070
E030
E000
E000
E030
F070
F070
7FE0
1FC0
0780
0F00
0F00
1C00
ENDCHAR
STARTCHAR 00E8
ENCODING 232
SWIDTH 600 0
DWIDTH 15 0
BBX 12 17 1 1
BITMAP
1C00
0F00
0380
0000
03C0
1FC0
7FE0
F070
E030
E030
FFF0
FFE0
E000
F070
F0F0
1FC0
1FC0
ENDCHAR
STARTCHAR 00E9
ENCODING 233
SWIDTH 600 0
DWIDTH 15 0
BBX 12 17 1 1
BITMAP
03C0
0780
0C00
0000
03C0
1FC0
7FE0
F070
E030
E030
FFF0
FFE0
E000
F070
F0F0
1FC0
1FC0
ENDCHAR
STARTCHAR 00EA
ENCODING 234
SWIDTH 600 0
DWIDTH 15 0
BBX 12 17 1 1
BITMAP
0700
0700
18C0
18C0
03C0
1FC0
7FE0
F070
E030
E030
FFF0
FFE0
E000
F070
F0F0
1FC0
1FC0
ENDCHAR
STARTCHAR 00EB
ENCODING 235
SWIDTH 600 0
DWIDTH 15 0
BBX 12 17 1 1
BITMAP
18C0
18C0
0000
0000
03C0
1FC0
7FE0
F070
E030
E030
FFF0
FFE0
E000
F070
F0F0
1FC0
1FC0
ENDCHAR
STARTCHAR 00EC
ENCODING 236
SWIDTH 600 0
DWIDTH 15 0
BBX 9 17 2 1
BITMAP
F000
3800
0E00
0000
0000
0000
3E00
3E00
0E00
0E00
0E00
0E00
0E00
0F00
0F00
0780
0180
ENDCHAR
STARTCHAR 00ED
ENCODING 237
SWIDTH 600 0
DWIDTH 15 0
BBX 7 17 4 1
BITMAP
1E
3C
60
00
00
00
F8
F8
38
38
38
38
38
3C
3C
1E
06
ENDCHAR
STARTCHAR 00EE
ENCODING 238
SWIDTH 600 0
DWIDTH 15 0
BBX 9 17 2 1
BITMAP
1800
1800
E700
E700
0000
0000
3E00
3E00
0E00
0E00
0E00
0E00
0E00
0F00
0F00
0780
0180
ENDCHAR
STARTCHAR 00EF
ENCODING 239
SWIDTH 600 0
DWIDTH 15 0
BBX 9 17 2 1
BITMAP
E700
E700
0000
0000
0000
0000
3E00
3E00
0E00
0E00
0E00
0E00
0E00
0F00
0F00
0780
0180
ENDCHAR
STARTCHAR 00F0
ENCODING 240
SWIDTH 600 0
DWIDTH 15 0
BBX 12 19 1 1
BITMAP
0060
0060
0060
0FF0
0FF0
0060
0060
1FE0
7FE0
F060
E060
E060
E060
E060
E060
F0E0
F0E0
7FC0
1F80
ENDCHAR
STARTCHAR 00F1
ENCODING 241
SWIDTH 600 0
DWIDTH 15 0
BBX 12 17 1 1
BITMAP
0C40
1FC0
1380
0000
0000
EFC0
FFE0
F070
E030
E030
E030
E030
E030
E030
E030
E030
E030
ENDCHAR
STARTCHAR 00F2
ENCODING 242
SWIDTH 600 0
DWIDTH 15 0
BBX 12 17 1 1
BITMAP
1C00
0F00
0380
0000
0000
1FC0
7FE0
F070
F070
E030
E030
E030
E030
F070
F070
7FE0
1FC0
ENDCHAR
STARTCHAR 00F3
ENCODING 243
SWIDTH 600 0
DWIDTH 15 0
BBX 12 17 1 1
BITMAP
03C0
0780
0C00
0000
0000
1FC0
7FE0
F070
F070
E030
E030
E030
E030
F070
F070
7FE0
1FC0
ENDCHAR
STARTCHAR 00F4
ENCODING 244
SWIDTH 600 0
DWIDTH 15 0
BBX 12 17 1 1
BITMAP
0700
0700
18C0
18C0
0000
1FC0
7FE0
F070
F070
E030
E030
E030
E030
F070
F070
7FE0
1FC0
ENDCHAR
STARTCHAR 00F5
ENCODING 245
SWIDTH 600 0
DWIDTH 15 0
BBX 12 17 1 1
BITMAP
0C40
1FC0
1380
0000
0000
1FC0
7FE0
F070
F070
E030
E030
E030
E030
F070
F070
7FE0
1FC0
ENDCHAR
STARTCHAR 00F6
ENCODING 246
SWIDTH 600 0
DWIDTH 15 0
BBX 12 17 1 1
BITMAP
18C0
18C0
0000
0000
0000
1FC0
7FE0
F070
F070
E030
E030
E030
E030
F070
F070
7FE0
1FC0
ENDCHAR
STARTCHAR 00F8
ENCODING 248
SWIDTH 600 0
DWIDTH 15 0
BBX 12 13 1 1
BITMAP
1FB0
7FF0
F060
E0F0
E3F0
E3B0
E730
EC30
FC30
F830
7070
FFE0
EFC0
ENDCHAR
STARTCHAR 00F9
ENCODING 249
SWIDTH 600 0
DWIDTH 15 0
BBX 12 17 1 1
BITMAP
1C00
0F00
0380
0000
E030
E030
E030
E030
E030
E030
E030
E030
E030
F070
F070
7FE0
1FC0
ENDCHAR
STARTCHAR 00FA
ENCODING 250
SWIDTH 600 0
DWIDTH 15 0
BBX 12 17 1 1
BITMAP
03C0
0780
0C00
0000
E030
E030
E030
E030
E030
E030
E030
E030
E030
F070
F070
7FE0
1FC0
ENDCHAR
STARTCHAR 00FB
ENCODING 251
SWIDTH 600 0
DWIDTH 15 0
BBX 12 17 1 1
BITMAP
0700
0700
18C0
18C0
E030
E030
E030
E030
E030
E030
E030
E030
E030
F070
F070
7FE0
1FC0
ENDCHAR
STARTCHAR 00FC
ENCODING 252
SWIDTH 600 0
DWIDTH 15 0
BBX 12 17 1 1
BITMAP
18C0
18C0
0000
0000
E030
E030
E030
E030
E030
E030
E030
E030
E030
F070
F070
7FE0
1FC0
ENDCHAR
STARTCHAR 00FD
ENCODING 253
SWIDTH 600 0
DWIDTH 15 0
BBX 12 17 1 1
BITMAP
03C0
0780
0C00
0000
0000
E030
E070
E0F0
F3F0
F3F0
7FB0
1F30
0030
0030
0070
1FE0
1FC0
ENDCHAR
STARTCHAR 00FE
ENCODING 254
SWIDTH 600 0
DWIDTH 15 0
BBX 12 16 1 1
BITMAP
E000
E000
E000
E7C0
FFE0
F870
E030
E030
E030
E030
F870
FFE0
E7C0
E000
E000
E000
ENDCHAR
STARTCHAR 00FF
ENCODING 255
SWIDTH 600 0
DWIDTH 15 0
BBX 12 17 1 1
BITMAP
18C0
18C0
0000
0000
0000
E030
E070
E0F0
F3F0
F3F0
7FB0
1F30
0030
0030
0070
1FE0
1FC0
ENDCHAR
STARTCHAR 037E
ENCODING 894
SWIDTH 600 0
DWIDTH 15 0
BBX 5 15 2 1
BITMAP
18
18
00
00
00
00
00
00
00
00
18
18
18
30
E0
ENDCHAR
STARTCHAR 2018
ENCODING 8216
SWIDTH 600 0
DWIDTH 15 0
BBX 4 7 7 11
BITMAP
10
20
E0
F0
F0
F0
F0
ENDCHAR
STARTCHAR 2019
ENCODING 8217
SWIDTH 600 0
DWIDTH 15 0
BBX 3 7 4 11
BITMAP
E0
E0
E0
E0
60
40
80
ENDCHAR
STARTCHAR 201C
ENCODING 8220
SWIDTH 600 0
DWIDTH 15 0
BBX 10 7 2 11
BITMAP
1040
1040
E180
F1C0
F1C0
F1C0
F1C0
ENDCHAR
STARTCHAR 201D
ENCODING 8221
SWIDTH 600 0
DWIDTH 15 0
BBX 10 8 2 10
BITMAP
F1C0
F1C0
F1C0
F1C0
30C0
2080
C100
C100
ENDCHAR
STARTCHAR 2022
ENCODING 8226
SWIDTH 600 0
DWIDTH 15 0
BBX 7 6 4 7
BITMAP
7C
FE
FE
FE
FE
7C
ENDCHAR
STARTCHAR 2026
ENCODING 8230
SWIDTH 600 0
DWIDTH 15 0
BBX 12 2 1 1
BITMAP
E730
E730
ENDCHAR
STARTCHAR 2039
ENCODING 8249
SWIDTH 600 0
DWIDTH 15 0
BBX 7 11 2 1
BITMAP
06
0E
18
18
30
E0
30
18
18
0E
06
ENDCHAR
STARTCHAR 203A
ENCODING 8250
SWIDTH 600 0
DWIDTH 15 0
BBX 6 11 4 1
BITMAP
80
C0
60
60
38
1C
38
60
60
C0
80
ENDCHAR
STARTCHAR 2044
ENCODING 8260
SWIDTH 600 0
DWIDTH 15 0
BBX 12 17 1 1
BITMAP
0030
0030
0030
0030
0070
00E0
03C0
0780
0F80
0F00
1C00
7800
F000
E000
E000
E000
E000
ENDCHAR
STARTCHAR 20A3
ENCODING 8355
SWIDTH 600 0
DWIDTH 15 0
BBX 12 17 1 1
BITMAP
7FF0
7FF0
7000
7000
7000
7000
7000
7FC0
7FC0
7000
7000
FC00
FC00
7000
7000
7000
7000
ENDCHAR
STARTCHAR 20A4
ENCODING 8356
SWIDTH 600 0
DWIDTH 15 0
BBX 12 20 1 1
BITMAP
07C0
0FE0
1CF0
1C70
1830
1800
1800
1800
FFC0
FFC0
1800
FFC0
FFC0
1800
1800
1800
7000
7000
FFF0
FFF0
ENDCHAR
STARTCHAR 20A7
ENCODING 8359
SWIDTH 600 0
DWIDTH 15 0
BBX 12 17 1 1
BITMAP
F000
9800
8800
8800
8800
8800
8B00
8B00
9FF0
9FF0
E340
8340
8370
8370
8310
8350
8370
ENDCHAR
STARTCHAR 20AC
ENCODING 8364
SWIDTH 600 0
DWIDTH 15 0
BBX 12 19 1 1
BITMAP
07C0
07C0
1C30
1C30
7000
7000
FF00
FF00
7000
FF00
FF00
7000
7000
7000
7800
1C30
1C30
07C0
07C0
ENDCHAR
STARTCHAR 2122
ENCODING 8482
SWIDTH 600 0
DWIDTH 15 0
BBX 12 7 1 11
BITMAP
FF10
FF10
13B0
13B0
1350
1310
1310
ENDCHAR
STARTCHAR 2190
ENCODING 8592
SWIDTH 600 0
DWIDTH 15 0
BBX 12 12 1 4
BITMAP
0700
0C00
1C00
1800
7000
FFF0
FFF0
7000
1800
1C00
0C00
0700
ENDCHAR
STARTCHAR 2191
ENCODING 8593
SWIDTH 600 0
DWIDTH 15 0
BBX 12 12 1 4
BITMAP
0700
0700
0700
0F80
0F80
18C0
18C0
7960
7060
7060
E030
E030
ENDCHAR
STARTCHAR 2192
ENCODING 8594
SWIDTH 600 0
DWIDTH 15 0
BBX 12 12 1 4
BITMAP
0700
0380
03C0
00C0
0060
FFF0
FFF0
0060
00C0
03C0
0380
0700
ENDCHAR
STARTCHAR 2193
ENCODING 8595
SWIDTH 600 0
DWIDTH 15 0
BBX 12 12 1 4
BITMAP
E030
E030
7060
7060
7060
18C0
18C0
0F80
0F80
0F80
0700
0700
ENDCHAR
STARTCHAR 2194
ENCODING 8596
SWIDTH 600 0
DWIDTH 15 0
BBX 12 13 1 2
BITMAP
0300
0380
0380
03C0
FFE0
FFF0
FFF0
FFF0
FFE0
03C0
0380
0380
0300
ENDCHAR
STARTCHAR 2215
ENCODING 8725
SWIDTH 600 0
DWIDTH 15 0
BBX 12 17 1 1
BITMAP
0030
0030
0030
0030
0070
00E0
03C0
0780
0F80
0F00
1C00
7800
F000
E000
E000
E000
E000
ENDCHAR
STARTCHAR 25B2
ENCODING 9650
SWIDTH 600 0
DWIDTH 15 0
BBX 12 15 1 2
BITMAP
0700
0700
0F80
0F80
0F80
1FC0
1FC0
7FE0
7FE0
7FE0
FFF0
FFF0
FFF0
FFF0
FFF0
ENDCHAR
STARTCHAR 25BA
ENCODING 9658
SWIDTH 600 0
DWIDTH 15 0
BBX 10 15 2 2
BITMAP
F000
F800
FE00
FE00
FF00
FF80
FFC0
FFC0
FFC0
FF80
FF00
FE00
F800
F800
F000
ENDCHAR
STARTCHAR 25BC
ENCODING 9660
SWIDTH 600 0
DWIDTH 15 0
BBX 12 15 1 2
BITMAP
FFF0
FFF0
FFF0
FFF0
FFF0
7FE0
7FE0
7FE0
1FC0
1FC0
0F80
0F80
0F80
0700
0700
ENDCHAR
STARTCHAR 25C4
ENCODING 9668
SWIDTH 600 0
DWIDTH 15 0
BBX 10 15 2 2
BITMAP
01C0
07C0
0FC0
0FC0
1FC0
3FC0
FFC0
FFC0
FFC0
3FC0
1FC0
0FC0
07C0
07C0
01C0
ENDCHAR
ENDFONT
